<svg xmlns="http://www.w3.org/2000/svg" width="106.764" height="86.93" viewBox="0 0 106.764 86.93">
  <path id="SVG" d="M52.284,23.913l-35.638,29.1v34.1a4.293,4.293,0,0,0,1.033,2.728,2.766,2.766,0,0,0,2.582,1.091H44.537v-25.1H60.032v25.1H83.79a3.838,3.838,0,0,0,2.582-1.091,3.094,3.094,0,0,0,1.033-2.728V55.467Zm50.609,21.369L87.507,32.142l.415-23.96a2.078,2.078,0,0,0-.516-1.637A1.834,1.834,0,0,0,85.856,6H73.977a1.834,1.834,0,0,0-1.549.546,2.078,2.078,0,0,0-.516,1.637V20.731L56.933,7.637A6.11,6.11,0,0,0,52.284,6a6.11,6.11,0,0,0-4.648,1.637L-.321,45.283c-.516.546-.516.546-.516,1.637a2.078,2.078,0,0,0,.516,1.637l3.615,4.91a1.561,1.561,0,0,1,1.033.546,1.834,1.834,0,0,0,1.549-.546L52.284,17.457,96.066,54.93c.516.546.516.546,1.549.546h0c.516,0,1.033-.546,1.549-.546l4.245-6.374a2.078,2.078,0,0,0,.516-1.637C103.41,46.374,103.41,45.828,102.894,45.283Z" transform="translate(1.838 -5)" fill="none" stroke="#006154" stroke-width="2"/>
</svg>
