<svg xmlns="http://www.w3.org/2000/svg" xmlns:xlink="http://www.w3.org/1999/xlink" width="110.667" height="84.93" viewBox="0 0 110.667 84.93">
  <defs>
    <linearGradient id="linear-gradient" x1="0.202" y1="0.158" x2="0.825" y2="1.095" gradientUnits="objectBoundingBox">
      <stop offset="0" stop-color="#006154"/>
      <stop offset="1" stop-color="#00a28c"/>
    </linearGradient>
  </defs>
  <path id="SVG" d="M55.277,24.913l-37.646,28.1v34.1a4.167,4.167,0,0,0,1.091,2.728A3,3,0,0,0,21.45,90.93H47.093v-25.1H63.461v25.1h25.1a4.168,4.168,0,0,0,2.728-1.091,3,3,0,0,0,1.091-2.728V55.467Zm53.461,20.369L92.484,32.142l.439-23.96A1.929,1.929,0,0,0,90.741,6H78.192A1.929,1.929,0,0,0,76.01,8.182V20.731L60.187,7.637A6.669,6.669,0,0,0,55.277,6a6.669,6.669,0,0,0-4.91,1.637L-.292,45.283c-.546.546-.546.546-.546,1.637a2,2,0,0,0,.546,1.637l3.819,4.91a1.69,1.69,0,0,1,1.091.546,2,2,0,0,0,1.637-.546L55.277,17.457,101.525,54.93c.546.546.546.546,1.637.546h0c.546,0,1.091-.546,1.637-.546l4.484-6.374a2,2,0,0,0,.546-1.637C109.283,46.374,109.283,45.828,108.738,45.283Z" transform="translate(0.838 -6)" fill="url(#linear-gradient)"/>
</svg>
