<svg xmlns="http://www.w3.org/2000/svg" width="10.059" height="12.073" viewBox="0 0 10.059 12.073">
  <path id="Caminho_85" data-name="Caminho 85" d="M45.167,49.976H38.741A1.036,1.036,0,0,1,37.7,48.944v-8.6a.538.538,0,0,1,.539-.537h7.422a.538.538,0,0,1,.539.537v8.6A1.036,1.036,0,0,1,45.167,49.976ZM38.782,48.9h6.344v-8.02H38.782Z" transform="translate(-36.925 -37.904)" fill="#007c6b"/>
  <path id="Caminho_86" data-name="Caminho 86" d="M31.027,40.881h-8.98a.537.537,0,1,1,0-1.073h8.981a.537.537,0,1,1,0,1.073Z" transform="translate(-21.508 -37.901)" fill="#007c6b"/>
  <path id="Caminho_87" data-name="Caminho 87" d="M82.933,2.98H79.48a.538.538,0,0,1-.539-.537V1.032A1.036,1.036,0,0,1,79.978,0h2.458a1.036,1.036,0,0,1,1.037,1.032V2.443A.538.538,0,0,1,82.933,2.98ZM80.019,1.906h2.376V1.073H80.019Z" transform="translate(-76.177)" fill="#007c6b"/>
  <path id="Caminho_88" data-name="Caminho 88" d="M142.775,89.894a.538.538,0,0,1-.539-.537V84.493a.539.539,0,0,1,1.078,0v4.864A.538.538,0,0,1,142.775,89.894Z" transform="translate(-136.427 -79.936)" fill="#007c6b"/>
  <path id="Caminho_89" data-name="Caminho 89" d="M87.969,89.894a.538.538,0,0,1-.539-.537V84.493a.539.539,0,0,1,1.078,0v4.864A.538.538,0,0,1,87.969,89.894Z" transform="translate(-84.258 -79.936)" fill="#007c6b"/>
</svg>
