<?xml version="1.0" standalone="no"?>
<!DOCTYPE svg PUBLIC "-//W3C//DTD SVG 20010904//EN"
 "http://www.w3.org/TR/2001/REC-SVG-20010904/DTD/svg10.dtd">
<svg version="1.0" xmlns="http://www.w3.org/2000/svg"
 width="64.000000pt" height="64.000000pt" viewBox="0 0 64.000000 64.000000"
 preserveAspectRatio="xMidYMid meet">

<g transform="translate(0.000000,64.000000) scale(0.100000,-0.100000)"
fill="#000000" stroke="none">
<path d="M219 485 c-65 -21 -138 -73 -173 -122 l-29 -42 27 -41 c53 -81 170
-140 276 -140 106 0 223 59 276 140 l26 39 -21 35 c-70 113 -248 174 -382 131z
m187 -79 c30 -30 34 -40 34 -86 0 -46 -4 -56 -34 -86 -30 -30 -40 -34 -86 -34
-46 0 -56 4 -86 34 -50 50 -50 122 0 172 30 30 40 34 86 34 46 0 56 -4 86 -34z"/>
<path d="M262 377 c-50 -53 -13 -137 59 -137 47 0 79 34 79 81 0 71 -90 107
-138 56z"/>
</g>
</svg>
