<svg xmlns="http://www.w3.org/2000/svg" width="28.838" height="25.576" viewBox="0 0 28.838 25.576">
  <path id="Favorite_Heart" data-name="Favorite Heart" d="M27.383,17.056a7.715,7.715,0,0,0,0-10.813A7.48,7.48,0,0,0,22.028,4h0a7.484,7.484,0,0,0-5.356,2.243L15.3,7.628l-1.37-1.385a7.516,7.516,0,0,0-10.712,0,7.715,7.715,0,0,0,0,10.813L15.3,29.273l7.257-7.338ZM4.066,7.081a6.326,6.326,0,0,1,9.018,0L15.3,9.323l2.217-2.242a6.326,6.326,0,0,1,9.018,0,6.519,6.519,0,0,1,0,9.138L15.3,27.579,4.066,16.218A6.519,6.519,0,0,1,4.066,7.081Z" transform="translate(-0.882 -3.875)" fill="#007c6b" stroke="#007c6b" stroke-width="0.25"/>
</svg>
