<svg id="SVG_" data-name="SVG " xmlns="http://www.w3.org/2000/svg" width="26.1" height="26.1" viewBox="0 0 26.1 26.1">
  <circle id="Sol" cx="1.484" cy="1.484" r="1.484" transform="translate(14.185 6.587)" fill="#528e00"/>
  <path id="Image_Icon" data-name="Icone de Imagem" d="M6.322,31.9h0c0,.022,0,.022.022.022.022.045.045.112.067.157,0,.022.022.022.022.045s.022.022.022.045l.022.022c.022.045.067.067.09.112l.022.022.045.045a.022.022,0,0,1,.022.022c.022.022.045.022.067.045l.022.022a.022.022,0,0,1,.022.022c.022.022.067.022.09.045.022,0,.022,0,.045.022a.078.078,0,0,1,.045.022.622.622,0,0,0,.2.022H31.478a.912.912,0,0,0,.922-.922V7.422a.912.912,0,0,0-.922-.922H7.222a.912.912,0,0,0-.922.922V31.633c0,.067.022.157.022.225V31.9Zm24.3-1.169H10.3L25.319,20.91l5.305,5.058ZM8.143,8.343H30.624V23.428L26.06,19.067a.95.95,0,0,0-1.147-.112L20.62,21.787l-2.99-3.012a.922.922,0,0,0-1.147-.135L8.143,23.9V8.343Zm0,17.737,8.7-5.485,2.2,2.226-10.9,7.126Z" transform="translate(-6.3 -6.5)" fill="#528e00"/>
</svg>
