<svg id="SVG" xmlns="http://www.w3.org/2000/svg" width="29.918" height="32.628" viewBox="0 0 29.918 32.628">
  <path id="LogoIcon" data-name="Icone de uma logo" d="M20.9,26.335H10.27V10.628l9.02-7.847,8.8,7.525v9.862a.506.506,0,0,0,1.011,0v-9L32.4,13.983a.506.506,0,0,0,.657-.769L19.616,1.729a.505.505,0,0,0-.66,0L5.8,13.176a.506.506,0,0,0,.664.763l2.8-2.432V26.841a.506.506,0,0,0,.506.506H20.9a.506.506,0,1,0,0-1.011Z" transform="translate(-5.625 -1.608)" fill="#528e00"/>
  <path id="LogoIcon" data-name="Icone do que seria uma logomarca" d="M52.993,54.252,41.434,41.128A3.57,3.57,0,0,0,40.357,37.9c-1.037-.894-1.991-.724-3.434-.468-.189.034-.389.069-.6.105-.544.091-1-.445-1.5-1.1-.353-.466-.659-.867-1.136-.742s-.573.653-.638,1.139c-.288,2.156-.15,5.152,1.183,6.5a4.741,4.741,0,0,0,3.354,1.261c.093,0,.17,0,.239-.006L51.068,56.178a2.049,2.049,0,0,0,1.4.636h.011a1.17,1.17,0,0,0,.837-.336A1.61,1.61,0,0,0,52.993,54.252ZM34.032,37.072c.481.634,1.279,1.659,2.454,1.462.217-.036.421-.072.614-.107,1.429-.255,1.956-.315,2.6.238a2.6,2.6,0,0,1,.73,2.394l-2.649,2.515a3.878,3.878,0,0,1-2.832-.954C33.962,41.625,33.784,39.071,34.032,37.072Zm6.845,4.953,1.051,1.193L40,45.148l-1.254-1.1ZM52.592,55.77a.205.205,0,0,1-.126.033,1.113,1.113,0,0,1-.709-.365L40.761,45.816,42.6,43.98l9.648,10.954.025.027C52.618,55.3,52.676,55.684,52.592,55.77Z" transform="translate(-23.718 -24.187)" fill="#528e00"/>
</svg>
