<svg xmlns="http://www.w3.org/2000/svg" width="119.229" height="11.042" viewBox="0 0 119.229 11.042">
  <g id="Logomarca-Cortinas-Abertas" transform="translate(0 0.287)" data-name="Logomarca">
    <g id="Logomarca-Cortinas-Abertas" data-name="logomarca" transform="translate(0 0.147)">
      <path id="Caminho_6" data-name="Caminho 6" d="M60.277,34.3a2.618,2.618,0,0,0,1.808,1.185c.367.077.742.119,1.117.179a.691.691,0,0,1,.665.674.716.716,0,0,1-.606.853,4.537,4.537,0,0,1-1.629-.043,5.433,5.433,0,0,1-3.505-2.559.563.563,0,0,0-.333-.247v2.081a.856.856,0,1,1-1.706-.034V29.065c0-1.578.06-1.646,1.646-1.637a20.154,20.154,0,0,1,2.78.085,3.411,3.411,0,0,1,2.951,3.309A3.318,3.318,0,0,1,60.7,34.233Zm-2.482-1.748h2.26a1.655,1.655,0,0,0,1.663-1.544,1.706,1.706,0,0,0-1.441-1.859,20.649,20.649,0,0,0-2.414,0Z" transform="translate(-36.763 -27.094)" fill="#0d0d0d"/>
      <path id="Caminho_7" data-name="Caminho 7" d="M53.184,32.342a5.262,5.262,0,1,1-5.117-5.2A5.262,5.262,0,0,1,53.184,32.342Zm-5.3,3.411a3.45,3.45,0,1,0-3.428-3.471A3.45,3.45,0,0,0,47.879,35.753Z" transform="translate(-34.788 -27.053)" fill="#0d0d0d"/>
      <path id="Caminho_8" data-name="Caminho 8" d="M84.777,33.705V28.29a.856.856,0,1,1,1.706,0V36.34a.853.853,0,0,1-.93.947c-1.706,0-1.62-.043-1.91-1.552a11.4,11.4,0,0,0-2.209-5c-.222-.281-.461-.546-.7-.853l-.154.094v6.2a1.458,1.458,0,0,1-.256.853.776.776,0,0,1-.955.179.793.793,0,0,1-.52-.81V28.6c0-.759.341-1.075,1.066-.853a5.534,5.534,0,0,1,1.578.81,8.725,8.725,0,0,1,3.113,4.665c.043.162.085.324.136.486Z" transform="translate(-40.113 -27.086)" fill="#0d0d0d"/>
      <path id="Caminho_9" data-name="Caminho 9" d="M98.263,37.284a1.356,1.356,0,0,1-1.2-.512,4.836,4.836,0,0,0-6.345.154c-.563.529-1.168.316-1.765.307-.094,0-.2-.239-.264-.384s0-.188.077-.264c1.3-2.806,2.61-5.62,3.94-8.418a1.347,1.347,0,0,1,1.987-.606,1.834,1.834,0,0,1,.7.785c1.228,2.635,2.431,5.279,3.633,7.931C99.432,37.182,99.363,37.284,98.263,37.284Zm-6.669-2.712a7.778,7.778,0,0,1,4.725-.094c-.8-1.706-1.552-3.352-2.362-5.117Z" transform="translate(-41.557 -27.083)" fill="#0d0d0d"/>
      <path id="Caminho_10" data-name="Caminho 10" d="M104.017,37.419a3.139,3.139,0,0,1-2.806-1.944.867.867,0,1,1,1.561-.751,1.6,1.6,0,0,0,1.62.989,1.467,1.467,0,0,0,1.433-1.467,1.492,1.492,0,0,0-1.322-1.578,3.278,3.278,0,0,1-1.032-.111,2.61,2.61,0,0,1-2.081-2.141,2.8,2.8,0,0,1,4.443-2.8,3.847,3.847,0,0,1,.853,1.126.657.657,0,0,1-.247.947,1.006,1.006,0,0,1-1.16-.128c-.085-.094-.145-.2-.222-.307a1.075,1.075,0,0,0-1.45-.35,1.177,1.177,0,0,0-.452,1.407,1.109,1.109,0,0,0,1.177.853,3.062,3.062,0,0,1,3.181,2.354,3.309,3.309,0,0,1-3.5,3.9Z" transform="translate(-43.388 -27.038)" fill="#0d0d0d"/>
      <path id="Caminho_11" data-name="Caminho 11" d="M39.391,27.356h.947a.834.834,0,0,1,.947.853c.009.537-.341.853-.955.853h-1.8a3.1,3.1,0,0,0-2.908,2.064,3.36,3.36,0,0,0,.853,3.667,3.181,3.181,0,0,0,2.03.776h1.8a.83.83,0,0,1,.947.853.853.853,0,0,1-.955.853,18.89,18.89,0,0,1-2.959-.188,4.836,4.836,0,0,1-3.9-5.032,4.947,4.947,0,0,1,4.315-4.605c.529-.077,1.066-.077,1.6-.119Z" transform="translate(-33.43 -27.081)" fill="#0d0d0d"/>
      <path id="Caminho_12" data-name="Caminho 12" d="M68.548,29.075h-2.03c-.614,0-.947-.324-.938-.853a.853.853,0,0,1,.921-.853h5.808a.853.853,0,0,1,.853,1.168.793.793,0,0,1-.853.546H70.373a.435.435,0,0,0-.145.06v7.181a.819.819,0,0,1-.426.853,1.527,1.527,0,0,1-.853,0c-.358-.136-.4-.52-.4-.853V29.075Z" transform="translate(-38.161 -27.087)" fill="#0d0d0d"/>
      <path id="Caminho_13" data-name="Caminho 13" d="M77.2,32.366v3.915c0,.648-.316,1.006-.853.989a.847.847,0,0,1-.853-.972V28.324c0-.614.316-.964.853-.964s.853.333.853.955C77.2,29.663,77.2,31.019,77.2,32.366Z" transform="translate(-39.619 -27.086)" fill="#0d0d0d"/>
    </g>
    <g id="Logotipo-Cortinas-Abertas" data-name="logotipo" transform="translate(69.189 0)">
      <path id="Caminho_14" data-name="Caminho 14" d="M56.11,50.453V40.53a31.054,31.054,0,0,1,3.3,0,1.9,1.9,0,0,1,1.151,3.105c-.129.155-.285.3-.453.479l.466.246a3.209,3.209,0,0,1,1.6,3.7,3.092,3.092,0,0,1-3.105,2.368Zm.272-.375a29.271,29.271,0,0,0,3.209,0,2.73,2.73,0,0,0,2.342-3.015,2.769,2.769,0,0,0-5.537,0c-.065.944-.013,1.954-.013,3.015Zm0-4.567A4.037,4.037,0,0,1,59.344,44a1.617,1.617,0,0,0,1.294-1.578,1.553,1.553,0,0,0-1.294-1.553c-.97-.065-1.941,0-2.937,0Z" transform="translate(-47.493 -40.405)" fill="#0d0d0d" stroke="#0d0d0d" stroke-width="0.25"/>
      <path id="Caminho_15" data-name="Caminho 15" d="M67.76,50.406V40.56c1.371,0,2.769-.1,4.127,0A2.277,2.277,0,0,1,73.8,42.436a2.588,2.588,0,0,1-.712,2.588c-.207.194-.44.362-.66.543a4.14,4.14,0,0,1,1.2,4.839v-1a14.473,14.473,0,0,0-.1-1.992,2.018,2.018,0,0,0-1.8-1.6H71.37c-2.406-.194-3.467.75-3.312,3.092v1.527Zm.272-3.881a3.131,3.131,0,0,1,2.795-1.087H71.4a2.342,2.342,0,0,0,2.174-2.174,2.212,2.212,0,0,0-1.785-2.355,36.221,36.221,0,0,0-3.752,0Z" transform="translate(-44.071 -40.397)" fill="#0d0d0d" stroke="#0d0d0d" stroke-width="0.25"/>
      <path id="Caminho_16" data-name="Caminho 16" d="M83.4,47.638a5.763,5.763,0,0,1,.233.543A2.264,2.264,0,0,0,85.962,50.1a6.585,6.585,0,0,0,1.423-.091,2.174,2.174,0,0,0,1.734-2.3,2.212,2.212,0,0,0-2.005-2.07H85.9a2.588,2.588,0,1,1,0-5.175,8.282,8.282,0,0,1,1.5,0,2.484,2.484,0,0,1,1.979,2.186,1.8,1.8,0,0,1-.065.427h-.142c-.815-2.031-1.294-2.29-3.493-2.174a2.225,2.225,0,1,0,0,4.451h1.229a2.569,2.569,0,0,1-.078,5.136,7.141,7.141,0,0,1-1.9-.168A2.264,2.264,0,0,1,83.4,47.638Z" transform="translate(-39.503 -40.424)" fill="#0d0d0d" stroke="#0d0d0d" stroke-width="0.25"/>
      <path id="Caminho_17" data-name="Caminho 17" d="M53.086,40.646l3.545,9.677-.181.116a2.691,2.691,0,0,1-.336-.543c-.349-.906-.673-1.837-1.009-2.743a2.3,2.3,0,0,0-4.14,0l-1.035,2.82a4.05,4.05,0,0,1-.272.44l-.207-.1,3.519-9.69Zm-1.721,5.343a3.273,3.273,0,0,1,3.3,0l-1.591-4.347h-.155Z" transform="translate(-49.45 -40.366)" fill="#0d0d0d" stroke="#0d0d0d" stroke-width="0.25"/>
      <path id="Caminho_18" data-name="Caminho 18" d="M77,50.364l3.584-9.884C81.878,43.9,83,47.117,84.168,50.352l-.155.116a2.587,2.587,0,0,1-.349-.479c-.349-.932-.673-1.876-1.022-2.82a2.316,2.316,0,0,0-4.114,0c-.349.932-.686,1.876-1.035,2.807a3.555,3.555,0,0,1-.259.492Zm5.253-4.321L80.571,41.5l-1.643,4.554a3.286,3.286,0,0,1,3.364-.013Z" transform="translate(-41.357 -40.407)" fill="#0d0d0d" stroke="#0d0d0d" stroke-width="0.25"/>
      <path id="Caminho_19" data-name="Caminho 19" d="M62.5,45.321h3.661v.285H62.491V48.93A1.4,1.4,0,0,0,64,50.082h3.221a5.174,5.174,0,0,1,.647.065v.168a3,3,0,0,1-.492.078H63.875A1.617,1.617,0,0,1,62.18,48.93c0-2.782,0-5.576,0-8.358a17.971,17.971,0,0,1,5.861.22H62.5Z" transform="translate(-45.71 -40.422)" fill="#0d0d0d" stroke="#0d0d0d" stroke-width="0.25"/>
      <path id="Caminho_20" data-name="Caminho 20" d="M75.864,50.39v-9.6H72.94v-.22h6.133v.194H76.187V50.4Z" transform="translate(-42.549 -40.381)" fill="#0d0d0d" stroke="#0d0d0d" stroke-width="0.25"/>
    </g>
  </g>
</svg>
