<svg xmlns="http://www.w3.org/2000/svg" width="60.699" height="46.881" viewBox="0 0 60.699 46.881"><g transform="translate(0.3 59)"><path d="M3.816-57.694c-1.053,1.132-.67,1.916,2.393,4.79l4.76,4.18L8.363-46.769C6.736-45.2,3.146-42.192,1.9-40.363l-2.2,3.4,2.705,3.695c2.68,4.616,9.515,9.489,15.546,12.1,5.169,2.264,14.18,2.784,19.828,1.3,3.733-.958,4.807.144,9.115,3.976,4.786,4.267,5.839,4.616,7.754,2.526C55.7-14.5,52.541-17.719,31.481-36.879,18.175-49.072,6.688-59,6.114-59A4.216,4.216,0,0,0,3.816-57.694ZM22.14-35.226c.766,3.309,4.472,6.33,7.726,6.33a7.265,7.265,0,0,1,4.487,1.6c1.819,1.829,1.34,1.418,0,1.94a13.355,13.355,0,0,1-14.726-5.12c-1.723-2.613-2.548-8.5-1.3-10.333C19.376-42.379,21.47-38.623,22.14-35.226Z"/><path d="M24.228-53.844c-2.9.6-3.828.644-.628,3.944,2.4,2.5,3.2,1.583,7.3,1.083,3.7-.4,5.888-.138,8.688,1.862,5.6,3.8,5.034,5.815,4.934,11.915,0,5.1,3.475,6.733,7.075,10.333C58.5-30.482,59.419-30.4,62.86-36.622l-2.979-4.654c-6.6-9.9-20.945-13.777-28.981-13.5A26.715,26.715,0,0,0,24.228-53.844Z" transform="translate(-2.461)"/><path d="M34.832-38.147c4.4,4.5,5.082,4.3,4.282,1.3-.6-2.4-4.223-5.492-6.423-5.492C31.591-42.336,32.232-40.747,34.832-38.147Z" transform="translate(-1.428 -2.572)"/></g></svg>